<svg xmlns="http://www.w3.org/2000/svg" xmlns:xlink="http://www.w3.org/1999/xlink" preserveAspectRatio="xMidYMid" viewBox="0 0 368.97 56.531">
  <defs>
    <style>
      .logo {
        fill: #157363;
      }
    </style>
  </defs>
  <path d="M368.971,51.137 L368.971,55.937 L334.171,55.937 L334.171,2.387 L367.921,2.387 L367.921,7.037 L339.271,7.037 L339.271,26.612 L364.921,26.612 L364.921,31.412 L339.271,31.412 L339.271,51.137 L368.971,51.137 ZM313.397,17.762 C313.397,17.312 313.421,16.837 313.472,16.337 C313.521,15.838 313.547,15.412 313.547,15.062 C312.696,16.262 311.684,17.700 310.509,19.374 C309.334,21.050 308.096,22.837 306.797,24.737 C305.496,26.638 304.172,28.575 302.822,30.549 C301.472,32.525 300.171,34.438 298.922,36.287 C297.671,38.137 296.509,39.862 295.434,41.462 C294.359,43.063 293.471,44.387 292.772,45.437 C292.071,44.537 291.122,43.250 289.922,41.574 C288.722,39.900 287.409,38.025 285.984,35.949 C284.559,33.875 283.071,31.725 281.522,29.499 C279.971,27.275 278.534,25.187 277.209,23.237 C275.884,21.287 274.709,19.575 273.684,18.099 C272.659,16.625 271.971,15.613 271.622,15.062 C271.622,15.412 271.659,15.838 271.734,16.337 C271.809,16.837 271.847,17.312 271.847,17.762 L271.847,55.937 L266.747,55.937 L266.747,-0.013 C267.696,1.387 268.871,3.099 270.272,5.124 C271.671,7.149 273.197,9.337 274.847,11.687 C276.497,14.038 278.196,16.438 279.947,18.887 C281.696,21.337 283.384,23.700 285.009,25.974 C286.634,28.250 288.122,30.337 289.472,32.237 C290.822,34.138 291.921,35.687 292.772,36.887 C293.222,36.238 294.034,35.062 295.209,33.362 C296.384,31.663 297.759,29.687 299.334,27.437 C300.909,25.187 302.621,22.750 304.472,20.125 C306.321,17.499 308.134,14.925 309.909,12.399 C311.684,9.875 313.359,7.524 314.934,5.349 C316.509,3.174 317.796,1.387 318.797,-0.013 L318.797,55.937 L313.397,55.937 L313.397,17.762 ZM241.272,28.898 L241.272,2.387 L246.447,2.387 L246.447,28.404 L259.447,53.937 L255.272,55.937 L241.272,28.898 ZM215.998,55.937 L210.823,55.937 L210.823,7.262 L196.723,7.262 L196.723,2.387 L230.248,2.387 L230.248,7.262 L215.998,7.262 L215.998,55.937 ZM164.699,27.362 L187.274,27.362 L187.274,32.162 L164.699,32.162 L164.699,55.937 L159.599,55.937 L159.599,2.387 L190.274,2.387 L190.274,7.112 L164.699,7.112 L164.699,27.362 ZM117.224,2.387 L122.324,2.387 L122.324,51.062 L150.824,51.062 L150.824,55.937 L117.224,55.937 L117.224,2.387 ZM97.837,48.549 C95.362,51.024 92.449,52.974 89.100,54.399 C85.750,55.824 82.200,56.537 78.450,56.537 C74.700,56.537 71.162,55.824 67.837,54.399 C64.512,52.974 61.612,51.024 59.137,48.549 C56.662,46.074 54.712,43.175 53.287,39.849 C51.862,36.525 51.150,32.987 51.150,29.237 C51.150,25.487 51.862,21.950 53.287,18.624 C54.712,15.300 56.662,12.388 59.137,9.887 C61.612,7.387 64.512,5.413 67.837,3.962 C71.162,2.512 74.700,1.787 78.450,1.787 C82.200,1.787 85.750,2.512 89.100,3.962 C92.449,5.413 95.362,7.387 97.837,9.887 C100.312,12.388 102.274,15.300 103.725,18.624 C105.175,21.950 105.900,25.487 105.900,29.237 C105.900,32.987 105.175,36.525 103.725,39.849 C102.274,43.175 100.312,46.074 97.837,48.549 ZM99.037,20.499 C97.862,17.775 96.262,15.388 94.237,13.337 C92.212,11.287 89.837,9.675 87.112,8.499 C84.387,7.325 81.499,6.737 78.450,6.737 C75.349,6.737 72.462,7.325 69.787,8.499 C67.112,9.675 64.762,11.287 62.737,13.337 C60.712,15.388 59.125,17.775 57.975,20.499 C56.824,23.225 56.250,26.137 56.250,29.237 C56.250,32.338 56.837,35.250 58.012,37.974 C59.187,40.700 60.775,43.074 62.775,45.099 C64.774,47.124 67.125,48.725 69.825,49.899 C72.525,51.075 75.400,51.662 78.450,51.662 C81.499,51.662 84.387,51.075 87.112,49.899 C89.837,48.725 92.212,47.124 94.237,45.099 C96.262,43.074 97.862,40.700 99.037,37.974 C100.212,35.250 100.800,32.338 100.800,29.237 C100.800,26.137 100.212,23.225 99.037,20.499 ZM27.450,56.537 C23.250,56.537 19.463,55.850 16.088,54.474 C12.713,53.100 9.837,51.212 7.463,48.812 C5.087,46.412 3.250,43.588 1.950,40.337 C0.649,37.087 0.000,33.587 0.000,29.837 C0.000,25.787 0.737,22.050 2.213,18.624 C3.687,15.200 5.687,12.238 8.213,9.737 C10.737,7.237 13.687,5.287 17.062,3.887 C20.438,2.488 24.000,1.787 27.750,1.787 C30.300,1.787 32.888,2.113 35.513,2.762 C38.138,3.412 40.474,4.363 42.525,5.612 L39.975,9.812 C38.325,8.812 36.387,8.025 34.163,7.449 C31.937,6.875 29.775,6.587 27.675,6.587 C24.625,6.587 21.737,7.187 19.013,8.387 C16.287,9.587 13.887,11.212 11.813,13.262 C9.737,15.313 8.100,17.737 6.900,20.537 C5.700,23.338 5.100,26.312 5.100,29.462 C5.100,32.462 5.637,35.312 6.713,38.012 C7.787,40.712 9.300,43.074 11.250,45.099 C13.200,47.124 15.550,48.725 18.300,49.899 C21.049,51.075 24.100,51.662 27.450,51.662 C29.100,51.662 30.837,51.474 32.663,51.099 C34.487,50.724 36.225,50.162 37.875,49.412 L37.875,31.912 L42.600,31.412 L42.600,52.712 C40.549,53.912 38.224,54.849 35.625,55.524 C33.025,56.200 30.300,56.537 27.450,56.537 Z" class="logo"/>
</svg>
